<?xml version="1.0" encoding="utf-8"?>
<!-- Generator: Adobe Illustrator 16.0.5, SVG Export Plug-In . SVG Version: 6.00 Build 0)  -->
<!DOCTYPE svg PUBLIC "-//W3C//DTD SVG 1.1//EN" "http://www.w3.org/Graphics/SVG/1.1/DTD/svg11.dtd">
<svg version="1.1" xmlns="http://www.w3.org/2000/svg" xmlns:xlink="http://www.w3.org/1999/xlink" x="0px" y="0px"
	 width="283.465px" height="283.46px" viewBox="0 0 283.465 283.46" enable-background="new 0 0 283.465 283.46"
	 xml:space="preserve">
<g id="Layer_2">
	<rect width="283.465" height="283.465"/>
</g>
<g id="Layer_1">
	<g>
		<path fill="#FFFFFF" d="M203.899,132.407c-7.505-8.421-16.901-12.633-28.189-12.633c-9.796,0-18.563,4.011-26.298,12.032
			c0,0,0-47.071,0-47.328c0-2.689-0.914-4.958-2.808-6.811c-1.897-1.895-4.188-2.843-6.877-2.843c-2.646,0-4.914,0.948-6.81,2.843
			c-1.795,1.793-2.748,3.906-2.843,6.331v124.214c0,0,35.608,0,45.292,0c11.458,0,20.94-4.183,28.447-12.549
			c7.562-8.424,11.345-19.08,11.345-31.971C215.159,151.203,211.405,140.775,203.899,132.407z M188.688,183.46
			c-4.413,4.985-9.972,7.475-16.674,7.475c-4.485,0-23.689-0.07-23.689-0.07s-0.031-18.779-0.031-26.914
			c0-7.907,2.205-14.323,6.618-19.253c4.47-4.984,10.255-7.477,17.36-7.477c6.646,0,12.174,2.58,16.588,7.737
			c4.354,5.042,6.531,11.573,6.531,19.594C195.392,172.114,193.157,178.418,188.688,183.46z"/>
		<circle fill="#F89620" cx="94.872" cy="94.237" r="19.412"/>
		<circle fill="#24A7E0" cx="94.872" cy="141.52" r="19.412"/>
		<circle fill="#3AB54A" cx="94.872" cy="188.8" r="19.412"/>
	</g>
</g>
</svg>
